<?xml version="1.0" encoding="UTF-8"?>
<svg id="_레이어_1" data-name="레이어 1" xmlns="http://www.w3.org/2000/svg" viewBox="0 0 682.37 74.5">
  <defs>
    <style>
      .cls-1 {
        fill: #f7f7f7;
      }
    </style>
  </defs>
  <path class="cls-1" d="m76.65,16.85c-.21,3.8-.57,7.29-1.07,10.48-.5,3.19-1.31,6.71-2.41,10.56-1.9,6.65-4.84,11.73-8.82,15.27-3.98,3.53-8.66,5.3-14.04,5.3h-.47c-3.16,0-5.76-.71-7.79-2.14-2.03-1.42-3.44-3.37-4.23-5.85h-.39c-1.63,2.53-3.75,4.5-6.33,5.89-2.58,1.4-5.51,2.1-8.78,2.1h-.4c-4.22,0-7.69-1.31-10.4-3.92-2.72-2.61-4.07-6.13-4.07-10.56,0-2.11.34-4.35,1.03-6.72l1.9-6.41c.16-.63.23-1.16.23-1.58,0-1.26-.71-1.9-2.13-1.9-1,0-1.77.05-2.29.16l.79-10.52c2.58-.74,5.35-1.11,8.3-1.11,3.11,0,5.55.83,7.32,2.49,1.76,1.66,2.65,3.99,2.65,7,0,1.69-.26,3.43-.79,5.22l-2.13,7.52c-.42,1.37-.63,2.61-.63,3.72,0,1.32.32,2.37.95,3.16.63.79,1.61,1.19,2.93,1.19h.48c1.84,0,3.39-.8,4.62-2.41,1.24-1.61,2.18-3.57,2.81-5.89l6.09-21.04h13.92l-6.01,21.04c-.37,1.48-.55,2.74-.55,3.8,0,3.01,1.29,4.51,3.87,4.51h.47c2.01,0,3.67-.82,4.99-2.45,1.32-1.63,2.35-3.72,3.08-6.25,1-3.37,1.75-6.62,2.26-9.73.5-3.11.88-6.75,1.15-10.91h13.92Z"/>
  <path class="cls-1" d="m120.08,43.58c-.16.63-.24,1.16-.24,1.58,0,1.26.71,1.9,2.14,1.9.47,0,1.24-.05,2.29-.16l-.79,10.44c-2.53.79-5.3,1.18-8.31,1.18-2.06,0-3.84-.37-5.34-1.11-1.5-.74-2.65-1.79-3.44-3.16-4.22,2.85-8.38,4.27-12.5,4.27-4.59,0-8.29-1.42-11.11-4.27-2.82-2.85-4.23-6.64-4.23-11.39,0-4.32.91-8.55,2.73-12.69,1.82-4.14,4.51-7.54,8.07-10.2,3.56-2.66,7.79-3.99,12.7-3.99,2.42,0,4.72.45,6.88,1.34,2.16.9,3.9,1.98,5.22,3.24,1.95-2.27,4.25-3.82,6.88-4.67l7.59,3.48c-.95,1.27-1.73,2.53-2.33,3.8s-1.15,2.72-1.62,4.35l-4.59,16.06Zm-26.22,2.01c.92.87,2.23,1.31,3.92,1.31,2.79,0,5.59-1.29,8.38-3.87l3.4-11.55c-.69-1.16-1.5-2.1-2.45-2.81s-2.22-1.07-3.8-1.07c-2.27,0-4.23.75-5.89,2.26-1.66,1.5-2.9,3.35-3.72,5.54-.82,2.19-1.23,4.28-1.23,6.29,0,1.74.46,3.04,1.38,3.91Z"/>
  <path class="cls-1" d="m152.11,27.6l-4.19,14.63c-.21.63-.32,1.29-.32,1.98,0,.79.23,1.38.71,1.78.47.4,1.24.6,2.29.6,1.95,0,3.85-.29,5.69-.87l.63,10.6c-2.06.85-3.89,1.41-5.5,1.7-1.61.29-3.39.43-5.34.43-3.9,0-7.03-.98-9.38-2.93-2.35-1.95-3.52-4.69-3.52-8.23,0-1.69.26-3.48.79-5.38l4.03-14.32h-6.33l3.16-10.76h6.64l3.72-9.97h12.82l-2.85,9.97h10.6l-3.08,10.76h-10.6Z"/>
  <path class="cls-1" d="m168.84,54.58c-3.3-2.58-4.94-6.35-4.94-11.31,0-4.37.95-8.66,2.85-12.85,1.9-4.19,4.87-7.66,8.9-10.4,4.03-2.74,9.08-4.11,15.15-4.11s10.64,1.28,13.88,3.84c3.24,2.56,4.87,6.31,4.87,11.27,0,4.38-.95,8.66-2.85,12.85-1.9,4.19-4.86,7.67-8.9,10.44-4.03,2.77-9.06,4.15-15.07,4.15s-10.59-1.29-13.88-3.87Zm21.39-10.01c1.69-1.45,2.97-3.23,3.84-5.34.87-2.11,1.31-4.11,1.31-6.01,0-1.79-.49-3.18-1.46-4.15s-2.44-1.46-4.39-1.46c-2.43,0-4.51.73-6.25,2.18-1.74,1.45-3.05,3.23-3.92,5.34s-1.3,4.11-1.3,6.01c0,1.79.5,3.18,1.5,4.15,1,.98,2.5,1.46,4.51,1.46,2.43,0,4.48-.72,6.17-2.18Z"/>
  <path class="cls-1" d="m213.41,47.77c1.32-.79,3.06-1.18,5.22-1.18,1.79,0,3.27.41,4.43,1.22,1.16.82,1.74,1.99,1.74,3.52,0,.58-.08,1.19-.24,1.82-.63,2.11-1.59,3.55-2.89,4.31-1.29.76-3.02,1.15-5.18,1.15-1.85,0-3.35-.4-4.51-1.19-1.16-.79-1.74-1.98-1.74-3.56,0-.32.11-.95.32-1.9.58-2.01,1.53-3.4,2.85-4.19Z"/>
  <path class="cls-1" d="m276.33,17.76c2.29,1.24,4.1,3.03,5.42,5.38,1.32,2.35,1.98,5.1,1.98,8.26,0,4.11-.9,8.25-2.69,12.42-1.79,4.17-4.45,7.65-7.99,10.44-3.53,2.8-7.8,4.19-12.81,4.19-2.16,0-4.19-.33-6.09-.99-1.9-.66-3.51-1.52-4.83-2.57l-4.9,17.16h-14.08l11.79-41.21c.16-.63.24-1.16.24-1.58,0-1.26-.71-1.9-2.14-1.9-1,0-1.77.05-2.29.16l.79-10.52c2.58-.74,5.35-1.11,8.31-1.11,4.16,0,7.09,1.42,8.78,4.27,3.85-2.85,8.12-4.27,12.81-4.27,2.85,0,5.42.62,7.71,1.86Zm-11.59,26.81c1.63-1.5,2.87-3.35,3.72-5.54s1.26-4.28,1.26-6.29c0-3.48-1.79-5.22-5.38-5.22-1.53,0-2.95.34-4.27,1.03-1.32.69-2.64,1.58-3.96,2.69l-3.4,11.94c.69,1.06,1.49,1.92,2.41,2.61.92.69,2.18,1.03,3.76,1.03,2.27,0,4.22-.75,5.85-2.25Z"/>
  <path class="cls-1" d="m329.92,17.48l-4.98,17.08h-11.07l2.06-7.2c-1.74.11-3.25.47-4.55,1.11-1.29.63-2.57,1.58-3.84,2.85l-7.51,26.18h-14l5.22-18.11,2.37-8.54c.16-.63.24-1.16.24-1.58,0-1.26-.71-1.9-2.14-1.9-1,0-1.77.05-2.29.16l.79-10.52c2.58-.74,5.35-1.11,8.31-1.11,2.11,0,3.94.4,5.5,1.19,1.55.79,2.7,1.95,3.44,3.48,4.69-3.11,9.38-4.67,14.08-4.67,2.64,0,5.41.53,8.31,1.58h.08Z"/>
  <path class="cls-1" d="m331.31,54.58c-3.3-2.58-4.94-6.35-4.94-11.31,0-4.37.95-8.66,2.85-12.85,1.9-4.19,4.87-7.66,8.9-10.4,4.03-2.74,9.08-4.11,15.15-4.11s10.64,1.28,13.88,3.84c3.24,2.56,4.87,6.31,4.87,11.27,0,4.38-.95,8.66-2.85,12.85-1.9,4.19-4.86,7.67-8.9,10.44-4.03,2.77-9.06,4.15-15.07,4.15s-10.59-1.29-13.88-3.87Zm21.39-10.01c1.69-1.45,2.97-3.23,3.84-5.34.87-2.11,1.31-4.11,1.31-6.01,0-1.79-.49-3.18-1.46-4.15-.98-.98-2.44-1.46-4.39-1.46-2.43,0-4.51.73-6.25,2.18-1.74,1.45-3.05,3.23-3.92,5.34-.87,2.11-1.3,4.11-1.3,6.01,0,1.79.5,3.18,1.5,4.15,1,.98,2.5,1.46,4.51,1.46,2.43,0,4.48-.72,6.17-2.18Z"/>
  <path class="cls-1" d="m427.52,6.25l-10.52,37.25c-.21.84-.32,1.4-.32,1.66,0,1.21.71,1.82,2.14,1.82,1,0,1.77-.05,2.29-.16l-.71,10.52c-2.58.74-5.35,1.11-8.3,1.11-2.06,0-3.84-.37-5.34-1.11-1.5-.74-2.68-1.79-3.52-3.16-4.22,2.85-8.38,4.27-12.5,4.27-3,0-5.67-.67-7.99-2.02-2.32-1.35-4.11-3.23-5.38-5.65-1.26-2.42-1.9-5.19-1.9-8.3,0-4.33.9-8.53,2.69-12.62,1.79-4.09,4.47-7.43,8.03-10.04,3.56-2.61,7.79-3.92,12.7-3.92,2,0,3.94.33,5.81.99,1.87.66,3.55,1.49,5.02,2.49l2.13-7.59h-4.51l3.01-9.65c4.96-.32,11.15-.48,18.59-.48l-1.43,4.59Zm-32.9,40.57c1.58,0,3.03-.34,4.35-1.03,1.32-.69,2.64-1.58,3.96-2.69l3.4-11.94c-.74-1.11-1.57-1.99-2.49-2.65-.92-.66-2.15-.99-3.68-.99-2.27,0-4.22.75-5.85,2.25-1.63,1.5-2.86,3.35-3.68,5.54-.82,2.19-1.23,4.29-1.23,6.29,0,3.48,1.74,5.22,5.22,5.22Z"/>
  <path class="cls-1" d="m470.87,43.5c-.16.63-.23,1.16-.23,1.58,0,1.26.71,1.9,2.13,1.9,1,0,1.77-.05,2.29-.16l-.79,10.52c-2.58.74-5.35,1.11-8.3,1.11-2.16,0-4.01-.4-5.54-1.19-1.53-.79-2.66-1.95-3.4-3.48-2.11,1.48-4.36,2.62-6.76,3.44-2.4.82-4.71,1.23-6.92,1.23-4.38,0-7.74-1.11-10.09-3.32-2.35-2.21-3.52-5.27-3.52-9.18,0-2.21.34-4.53,1.03-6.96l3.09-10.6.23-.79h-5.22l3.09-10.52c1.9-.16,4.48-.24,7.75-.24h11.47l-6.41,22.23c-.37,1.16-.55,2.21-.55,3.16,0,2.48,1.37,3.72,4.11,3.72,1.42,0,2.91-.32,4.47-.95,1.55-.63,2.99-1.48,4.31-2.53l4.19-14.55,3.16-11.07h14l-7.6,26.66Z"/>
  <path class="cls-1" d="m520.38,36.15h-11.63l2.29-7.99c-1.53-.47-3.01-.71-4.43-.71-2.37,0-4.43.74-6.17,2.21-1.74,1.48-3.07,3.3-3.99,5.46-.92,2.16-1.38,4.27-1.38,6.33,0,3.64,2.24,5.46,6.72,5.46,2.37,0,4.64-.25,6.8-.75,2.16-.5,4.75-1.33,7.75-2.49l1.58,10.6c-6.17,2.8-12.31,4.19-18.43,4.19-3.64,0-6.86-.66-9.65-1.98-2.8-1.32-4.96-3.21-6.49-5.66-1.53-2.45-2.29-5.34-2.29-8.66,0-4.37.94-8.57,2.81-12.57,1.87-4.01,4.8-7.29,8.78-9.85,3.98-2.56,8.92-3.84,14.83-3.84,3.53,0,6.86.43,9.97,1.31,3.11.87,5.51,2.23,7.2,4.07l-4.27,14.87Z"/>
  <path class="cls-1" d="m546.25,27.6l-4.19,14.63c-.21.63-.32,1.29-.32,1.98,0,.79.23,1.38.71,1.78.47.4,1.24.6,2.29.6,1.95,0,3.85-.29,5.69-.87l.63,10.6c-2.06.85-3.89,1.41-5.5,1.7-1.61.29-3.39.43-5.34.43-3.9,0-7.03-.98-9.38-2.93-2.35-1.95-3.52-4.69-3.52-8.23,0-1.69.26-3.48.79-5.38l4.03-14.32h-6.33l3.16-10.76h6.64l3.72-9.97h12.82l-2.85,9.97h10.6l-3.08,10.76h-10.6Z"/>
  <path class="cls-1" d="m565.31,27.37h-4.51l3.01-10.52c4.96-.32,11.15-.48,18.59-.48l-1.43,4.9-6.33,22.23c-.16.63-.24,1.16-.24,1.58,0,1.26.71,1.9,2.14,1.9,1,0,1.77-.05,2.29-.16l-.79,10.52c-2.58.74-5.35,1.11-8.31,1.11-3.11,0-5.56-.83-7.35-2.49s-2.69-3.99-2.69-7c0-1.69.26-3.43.79-5.22l4.82-16.37Zm5.74-15.27c-1.08-.79-1.62-1.9-1.62-3.32,0-.74.11-1.45.32-2.13.58-2.01,1.73-3.61,3.44-4.83,1.71-1.21,3.78-1.82,6.21-1.82,1.9,0,3.39.4,4.47,1.19,1.08.79,1.62,1.9,1.62,3.32,0,.74-.11,1.45-.32,2.14-.58,2-1.72,3.61-3.4,4.82-1.69,1.21-3.77,1.82-6.25,1.82-1.9,0-3.39-.4-4.47-1.19Z"/>
  <path class="cls-1" d="m589.79,54.58c-3.3-2.58-4.94-6.35-4.94-11.31,0-4.37.95-8.66,2.85-12.85,1.9-4.19,4.87-7.66,8.9-10.4,4.03-2.74,9.08-4.11,15.15-4.11s10.64,1.28,13.88,3.84c3.24,2.56,4.87,6.31,4.87,11.27,0,4.38-.95,8.66-2.85,12.85-1.9,4.19-4.86,7.67-8.9,10.44-4.03,2.77-9.06,4.15-15.07,4.15s-10.59-1.29-13.88-3.87Zm21.39-10.01c1.69-1.45,2.97-3.23,3.84-5.34.87-2.11,1.31-4.11,1.31-6.01,0-1.79-.49-3.18-1.46-4.15s-2.44-1.46-4.39-1.46c-2.43,0-4.51.73-6.25,2.18-1.74,1.45-3.05,3.23-3.92,5.34-.87,2.11-1.3,4.11-1.3,6.01,0,1.79.5,3.18,1.5,4.15,1,.98,2.5,1.46,4.51,1.46,2.43,0,4.48-.72,6.17-2.18Z"/>
  <path class="cls-1" d="m682.37,46.82l-.79,10.52c-2.58.74-5.33,1.11-8.23,1.11-3.11,0-5.56-.83-7.35-2.49-1.8-1.66-2.69-3.97-2.69-6.92,0-1.74.26-3.5.79-5.3l2.53-8.94c.37-1.16.55-2.24.55-3.24,0-2.37-1.4-3.56-4.19-3.56-1.48,0-2.98.33-4.51.99-1.53.66-2.93,1.52-4.19,2.57l-7.51,25.94h-14l7.59-26.66c.16-.63.24-1.16.24-1.58,0-1.26-.71-1.9-2.14-1.9-1,0-1.77.05-2.29.16l.79-10.52c2.58-.74,5.35-1.11,8.31-1.11,2.06,0,3.84.37,5.34,1.11,1.5.74,2.65,1.82,3.44,3.24,2.21-1.37,4.53-2.44,6.96-3.21,2.43-.76,4.72-1.15,6.88-1.15,4.48,0,7.89,1.12,10.21,3.36,2.32,2.24,3.48,5.23,3.48,8.98,0,2.01-.32,4.11-.95,6.33l-2.45,8.94c-.16.63-.23,1.16-.23,1.58,0,1.26.71,1.9,2.13,1.9,1,0,1.77-.05,2.29-.16Z"/>
</svg>